<?xml version="1.0" encoding="utf-8"?>
<!-- Generator: Adobe Illustrator 26.0.3, SVG Export Plug-In . SVG Version: 6.00 Build 0)  -->
<svg version="1.0" id="Layer_1" xmlns="http://www.w3.org/2000/svg" xmlns:xlink="http://www.w3.org/1999/xlink" x="0px" y="0px"
	 viewBox="0 0 1030.4 768.8" style="enable-background:new 0 0 1030.4 768.8;" xml:space="preserve">
<style type="text/css">
	.st0{fill:url(#SVGID_1_);}
	.st1{fill:url(#SVGID_00000150081184379599324340000011367170042281103023_);}
	.st2{fill:url(#SVGID_00000161602481332571404610000002699841841825444538_);}
	.st3{fill:#5C4998;}
	.st4{fill:#FFFFFF;}
</style>
<linearGradient id="SVGID_1_" gradientUnits="userSpaceOnUse" x1="291.2794" y1="-105.0606" x2="291.2794" y2="63.5393" gradientTransform="matrix(1.33 0 0 1.33 -85.98 251.31)">
	<stop  offset="0" style="stop-color:#58C3E6"/>
	<stop  offset="1" style="stop-color:#1C8BB4"/>
</linearGradient>
<path class="st0" d="M166.5,109.3h269.8c6.6,0,11.9,5.3,11.9,11.9v201.5c0,6.6-5.3,11.9-11.9,11.9H166.5c-6.6,0-11.9-5.3-11.9-11.9
	V121.2C154.7,114.7,160,109.3,166.5,109.3z"/>
<linearGradient id="SVGID_00000034057678610254930810000010507787076779802805_" gradientUnits="userSpaceOnUse" x1="612.7381" y1="-7.7107" x2="612.7381" y2="161.1993" gradientTransform="matrix(1.33 0 0 1.33 -85.98 251.31)">
	<stop  offset="0" style="stop-color:#58C3E6"/>
	<stop  offset="1" style="stop-color:#1C8BB4"/>
</linearGradient>
<path style="fill:url(#SVGID_00000034057678610254930810000010507787076779802805_);" d="M594.1,239.1h269.8
	c6.6,0,11.9,5.3,11.9,11.9v201.5c0,6.6-5.3,11.9-11.9,11.9H594.1c-6.6,0-11.9-5.3-11.9-11.9V251
	C582.2,244.4,587.5,239.1,594.1,239.1z"/>
<linearGradient id="SVGID_00000113316666116827640520000002286415177621873541_" gradientUnits="userSpaceOnUse" x1="333.3772" y1="138.6194" x2="333.3772" y2="307.2194" gradientTransform="matrix(1.33 0 0 1.33 -85.98 251.31)">
	<stop  offset="0" style="stop-color:#58C3E6"/>
	<stop  offset="1" style="stop-color:#1C8BB4"/>
</linearGradient>
<path style="fill:url(#SVGID_00000113316666116827640520000002286415177621873541_);" d="M228.5,434.2h257.9c9.8,0,17.8,8,17.8,17.8
	v189.6c0,9.8-8,17.8-17.8,17.8H228.5c-9.8,0-17.8-8-17.8-17.8V452C210.7,442.2,218.6,434.2,228.5,434.2z"/>
<path class="st3" d="M691.2,380.8l9.8-27.1L337.9,220l-9.7,26.7L691.2,380.8z M713.7,377l-13.6-25.5L357.8,531.8l13.1,25.5
	L713.7,377z M345.5,569.5l28.4-5.1l-57.7-327l-28.4,5.1L345.5,569.5z"/>
<circle class="st4" cx="728.7" cy="351.6" r="45.8"/>
<circle class="st4" cx="301.6" cy="221.8" r="45.8"/>
<circle class="st4" cx="357.9" cy="546.5" r="45.8"/>
</svg>
